<svg width="587" height="333" viewBox="0 0 587 333" fill="none" xmlns="http://www.w3.org/2000/svg">
<path d="M255.126 94.1967C254.529 88.1811 251.969 83.5078 247.445 80.1768C242.92 76.8459 236.781 75.1804 229.025 75.1804C223.755 75.1804 219.305 75.9261 215.676 77.4176C212.047 78.8594 209.263 80.8729 207.324 83.4581C205.435 86.0433 204.49 88.9766 204.49 92.2578C204.391 94.9922 204.962 97.3786 206.205 99.4169C207.498 101.455 209.263 103.22 211.5 104.712C213.737 106.153 216.322 107.421 219.256 108.515C222.189 109.559 225.321 110.454 228.652 111.2L242.374 114.481C249.036 115.972 255.151 117.961 260.719 120.447C266.287 122.933 271.109 125.99 275.186 129.619C279.263 133.249 282.42 137.524 284.657 142.446C286.944 147.368 288.112 153.011 288.162 159.374C288.112 168.721 285.726 176.825 281.003 183.685C276.33 190.496 269.568 195.791 260.719 199.57C251.919 203.298 241.305 205.163 228.876 205.163C216.546 205.163 205.808 203.273 196.66 199.495C187.562 195.717 180.452 190.124 175.332 182.716C170.261 175.259 167.601 166.036 167.352 155.049H198.599C198.947 160.17 200.413 164.445 202.999 167.876C205.634 171.256 209.138 173.817 213.513 175.557C217.938 177.247 222.935 178.092 228.503 178.092C233.972 178.092 238.719 177.297 242.746 175.706C246.823 174.115 249.98 171.903 252.217 169.069C254.455 166.235 255.573 162.979 255.573 159.3C255.573 155.869 254.554 152.986 252.516 150.649C250.527 148.312 247.594 146.324 243.716 144.683C239.888 143.043 235.19 141.551 229.621 140.209L212.991 136.033C200.115 132.901 189.948 128.004 182.491 121.342C175.033 114.68 171.33 105.706 171.379 94.4204C171.33 85.1733 173.79 77.0945 178.762 70.184C183.783 63.2734 190.669 57.8793 199.419 54.0014C208.169 50.1236 218.112 48.1847 229.249 48.1847C240.584 48.1847 250.477 50.1236 258.929 54.0014C267.43 57.8793 274.043 63.2734 278.766 70.184C283.489 77.0945 285.925 85.0987 286.074 94.1967H255.126Z" fill="#49C8E9"/>
<path d="M255.126 94.1967C254.529 88.1811 251.969 83.5078 247.445 80.1768C242.92 76.8459 236.781 75.1804 229.025 75.1804C223.755 75.1804 219.305 75.9261 215.676 77.4176C212.047 78.8594 209.263 80.8729 207.324 83.4581C205.435 86.0433 204.49 88.9766 204.49 92.2578C204.391 94.9922 204.962 97.3786 206.205 99.4169C207.498 101.455 209.263 103.22 211.5 104.712C213.737 106.153 216.322 107.421 219.256 108.515C222.189 109.559 225.321 110.454 228.652 111.2L242.374 114.481C249.036 115.972 255.151 117.961 260.719 120.447C266.287 122.933 271.109 125.99 275.186 129.619C279.263 133.249 282.42 137.524 284.657 142.446C286.944 147.368 288.112 153.011 288.162 159.374C288.112 168.721 285.726 176.825 281.003 183.685C276.33 190.496 269.568 195.791 260.719 199.57C251.919 203.298 241.305 205.163 228.876 205.163C216.546 205.163 205.808 203.273 196.66 199.495C187.562 195.717 180.452 190.124 175.332 182.716C170.261 175.259 167.601 166.036 167.352 155.049H198.599C198.947 160.17 200.413 164.445 202.999 167.876C205.634 171.256 209.138 173.817 213.513 175.557C217.938 177.247 222.935 178.092 228.503 178.092C233.972 178.092 238.719 177.297 242.746 175.706C246.823 174.115 249.98 171.903 252.217 169.069C254.455 166.235 255.573 162.979 255.573 159.3C255.573 155.869 254.554 152.986 252.516 150.649C250.527 148.312 247.594 146.324 243.716 144.683C239.888 143.043 235.19 141.551 229.621 140.209L212.991 136.033C200.115 132.901 189.948 128.004 182.491 121.342C175.033 114.68 171.33 105.706 171.379 94.4204C171.33 85.1733 173.79 77.0945 178.762 70.184C183.783 63.2734 190.669 57.8793 199.419 54.0014C208.169 50.1236 218.112 48.1847 229.249 48.1847C240.584 48.1847 250.477 50.1236 258.929 54.0014C267.43 57.8793 274.043 63.2734 278.766 70.184C283.489 77.0945 285.925 85.0987 286.074 94.1967H255.126Z" fill="url(#paint0_linear_80_29)" fill-opacity="0.7"/>
<path d="M383.126 238.803C382.529 244.819 379.969 249.492 375.445 252.823C370.92 256.154 364.781 257.82 357.025 257.82C351.755 257.82 347.305 257.074 343.676 255.582C340.047 254.141 337.263 252.127 335.324 249.542C333.435 246.957 332.49 244.023 332.49 240.742C332.391 238.008 332.962 235.621 334.205 233.583C335.498 231.545 337.263 229.78 339.5 228.288C341.737 226.847 344.322 225.579 347.256 224.485C350.189 223.441 353.321 222.546 356.652 221.8L370.374 218.519C377.036 217.028 383.151 215.039 388.719 212.553C394.287 210.067 399.109 207.01 403.186 203.381C407.263 199.751 410.42 195.476 412.657 190.554C414.944 185.632 416.112 179.989 416.162 173.626C416.112 164.279 413.726 156.175 409.003 149.315C404.33 142.504 397.568 137.209 388.719 133.43C379.919 129.702 369.305 127.837 356.876 127.837C344.546 127.837 333.808 129.727 324.66 133.505C315.562 137.283 308.452 142.876 303.332 150.284C298.261 157.741 295.601 166.964 295.352 177.951H326.599C326.947 172.83 328.413 168.555 330.999 165.124C333.634 161.744 337.138 159.183 341.513 157.443C345.938 155.753 350.935 154.908 356.503 154.908C361.972 154.908 366.719 155.703 370.746 157.294C374.823 158.885 377.98 161.097 380.217 163.931C382.455 166.765 383.573 170.021 383.573 173.7C383.573 177.131 382.554 180.014 380.516 182.351C378.527 184.688 375.594 186.676 371.716 188.317C367.888 189.957 363.19 191.449 357.621 192.791L340.991 196.967C328.115 200.099 317.948 204.996 310.491 211.658C303.033 218.32 299.33 227.294 299.379 238.58C299.33 247.827 301.79 255.906 306.762 262.816C311.783 269.727 318.669 275.121 327.419 278.999C336.169 282.876 346.112 284.815 357.249 284.815C368.584 284.815 378.477 282.876 386.929 278.999C395.43 275.121 402.043 269.727 406.766 262.816C411.489 255.906 413.925 247.901 414.074 238.803H383.126Z" fill="#49C8E9"/>
<path d="M383.126 238.803C382.529 244.819 379.969 249.492 375.445 252.823C370.92 256.154 364.781 257.82 357.025 257.82C351.755 257.82 347.305 257.074 343.676 255.582C340.047 254.141 337.263 252.127 335.324 249.542C333.435 246.957 332.49 244.023 332.49 240.742C332.391 238.008 332.962 235.621 334.205 233.583C335.498 231.545 337.263 229.78 339.5 228.288C341.737 226.847 344.322 225.579 347.256 224.485C350.189 223.441 353.321 222.546 356.652 221.8L370.374 218.519C377.036 217.028 383.151 215.039 388.719 212.553C394.287 210.067 399.109 207.01 403.186 203.381C407.263 199.751 410.42 195.476 412.657 190.554C414.944 185.632 416.112 179.989 416.162 173.626C416.112 164.279 413.726 156.175 409.003 149.315C404.33 142.504 397.568 137.209 388.719 133.43C379.919 129.702 369.305 127.837 356.876 127.837C344.546 127.837 333.808 129.727 324.66 133.505C315.562 137.283 308.452 142.876 303.332 150.284C298.261 157.741 295.601 166.964 295.352 177.951H326.599C326.947 172.83 328.413 168.555 330.999 165.124C333.634 161.744 337.138 159.183 341.513 157.443C345.938 155.753 350.935 154.908 356.503 154.908C361.972 154.908 366.719 155.703 370.746 157.294C374.823 158.885 377.98 161.097 380.217 163.931C382.455 166.765 383.573 170.021 383.573 173.7C383.573 177.131 382.554 180.014 380.516 182.351C378.527 184.688 375.594 186.676 371.716 188.317C367.888 189.957 363.19 191.449 357.621 192.791L340.991 196.967C328.115 200.099 317.948 204.996 310.491 211.658C303.033 218.32 299.33 227.294 299.379 238.58C299.33 247.827 301.79 255.906 306.762 262.816C311.783 269.727 318.669 275.121 327.419 278.999C336.169 282.876 346.112 284.815 357.249 284.815C368.584 284.815 378.477 282.876 386.929 278.999C395.43 275.121 402.043 269.727 406.766 262.816C411.489 255.906 413.925 247.901 414.074 238.803H383.126Z" fill="url(#paint1_linear_80_29)" fill-opacity="0.7"/>
<path d="M303.436 113V50.4545H345.581V61.3572H316.66V76.2607H343.413V87.1634H316.66V102.097H345.703V113H303.436ZM413.57 81.7273C413.57 88.5478 412.277 94.3504 409.692 99.1349C407.126 103.92 403.624 107.574 399.186 110.099C394.768 112.603 389.8 113.855 384.282 113.855C378.724 113.855 373.736 112.593 369.318 110.068C364.9 107.544 361.408 103.889 358.843 99.1044C356.278 94.3198 354.995 88.5275 354.995 81.7273C354.995 74.9067 356.278 69.1042 358.843 64.3196C361.408 59.535 364.9 55.8906 369.318 53.3864C373.736 50.8617 378.724 49.5994 384.282 49.5994C389.8 49.5994 394.768 50.8617 399.186 53.3864C403.624 55.8906 407.126 59.535 409.692 64.3196C412.277 69.1042 413.57 74.9067 413.57 81.7273ZM400.163 81.7273C400.163 77.3092 399.501 73.5833 398.178 70.5497C396.875 67.5161 395.032 65.2154 392.65 63.6477C390.268 62.08 387.479 61.2962 384.282 61.2962C381.086 61.2962 378.297 62.08 375.915 63.6477C373.532 65.2154 371.68 67.5161 370.356 70.5497C369.053 73.5833 368.402 77.3092 368.402 81.7273C368.402 86.1454 369.053 89.8712 370.356 92.9048C371.68 95.9384 373.532 98.2391 375.915 99.8068C378.297 101.375 381.086 102.158 384.282 102.158C387.479 102.158 390.268 101.375 392.65 99.8068C395.032 98.2391 396.875 95.9384 398.178 92.9048C399.501 89.8712 400.163 86.1454 400.163 81.7273ZM475.68 50.4545V113H464.259L437.048 73.6342H436.589V113H423.366V50.4545H434.971L461.968 89.7898H462.518V50.4545H475.68ZM528.079 70.6719C527.651 69.1856 527.051 67.8724 526.277 66.7322C525.503 65.5717 524.557 64.5945 523.437 63.8004C522.338 62.986 521.075 62.3651 519.65 61.9375C518.245 61.5099 516.688 61.2962 514.977 61.2962C511.781 61.2962 508.971 62.0902 506.548 63.6783C504.146 65.2663 502.273 67.5772 500.929 70.6108C499.585 73.6241 498.914 77.3092 498.914 81.6662C498.914 86.0232 499.575 89.7287 500.899 92.7827C502.222 95.8366 504.095 98.1679 506.518 99.7763C508.941 101.364 511.801 102.158 515.1 102.158C518.093 102.158 520.648 101.629 522.765 100.57C524.903 99.4912 526.532 97.9744 527.651 96.0199C528.792 94.0653 529.362 91.7545 529.362 89.0874L532.049 89.4844H515.924V79.5284H542.097V87.4077C542.097 92.9048 540.936 97.6283 538.615 101.578C536.294 105.508 533.098 108.541 529.026 110.679C524.954 112.796 520.291 113.855 515.039 113.855C509.175 113.855 504.024 112.562 499.585 109.977C495.147 107.371 491.686 103.675 489.202 98.8906C486.738 94.0857 485.507 88.3849 485.507 81.7884C485.507 76.7187 486.24 72.1989 487.705 68.2287C489.192 64.2382 491.268 60.8584 493.936 58.0895C496.603 55.3205 499.708 53.2133 503.25 51.7678C506.793 50.3222 510.631 49.5994 514.764 49.5994C518.306 49.5994 521.605 50.1186 524.659 51.157C527.713 52.175 530.42 53.6205 532.782 55.4936C535.164 57.3667 537.109 59.5961 538.615 62.1818C540.122 64.7472 541.089 67.5772 541.517 70.6719H528.079Z" fill="white"/>
<path d="M303.436 113V50.4545H345.581V61.3572H316.66V76.2607H343.413V87.1634H316.66V102.097H345.703V113H303.436ZM413.57 81.7273C413.57 88.5478 412.277 94.3504 409.692 99.1349C407.126 103.92 403.624 107.574 399.186 110.099C394.768 112.603 389.8 113.855 384.282 113.855C378.724 113.855 373.736 112.593 369.318 110.068C364.9 107.544 361.408 103.889 358.843 99.1044C356.278 94.3198 354.995 88.5275 354.995 81.7273C354.995 74.9067 356.278 69.1042 358.843 64.3196C361.408 59.535 364.9 55.8906 369.318 53.3864C373.736 50.8617 378.724 49.5994 384.282 49.5994C389.8 49.5994 394.768 50.8617 399.186 53.3864C403.624 55.8906 407.126 59.535 409.692 64.3196C412.277 69.1042 413.57 74.9067 413.57 81.7273ZM400.163 81.7273C400.163 77.3092 399.501 73.5833 398.178 70.5497C396.875 67.5161 395.032 65.2154 392.65 63.6477C390.268 62.08 387.479 61.2962 384.282 61.2962C381.086 61.2962 378.297 62.08 375.915 63.6477C373.532 65.2154 371.68 67.5161 370.356 70.5497C369.053 73.5833 368.402 77.3092 368.402 81.7273C368.402 86.1454 369.053 89.8712 370.356 92.9048C371.68 95.9384 373.532 98.2391 375.915 99.8068C378.297 101.375 381.086 102.158 384.282 102.158C387.479 102.158 390.268 101.375 392.65 99.8068C395.032 98.2391 396.875 95.9384 398.178 92.9048C399.501 89.8712 400.163 86.1454 400.163 81.7273ZM475.68 50.4545V113H464.259L437.048 73.6342H436.589V113H423.366V50.4545H434.971L461.968 89.7898H462.518V50.4545H475.68ZM528.079 70.6719C527.651 69.1856 527.051 67.8724 526.277 66.7322C525.503 65.5717 524.557 64.5945 523.437 63.8004C522.338 62.986 521.075 62.3651 519.65 61.9375C518.245 61.5099 516.688 61.2962 514.977 61.2962C511.781 61.2962 508.971 62.0902 506.548 63.6783C504.146 65.2663 502.273 67.5772 500.929 70.6108C499.585 73.6241 498.914 77.3092 498.914 81.6662C498.914 86.0232 499.575 89.7287 500.899 92.7827C502.222 95.8366 504.095 98.1679 506.518 99.7763C508.941 101.364 511.801 102.158 515.1 102.158C518.093 102.158 520.648 101.629 522.765 100.57C524.903 99.4912 526.532 97.9744 527.651 96.0199C528.792 94.0653 529.362 91.7545 529.362 89.0874L532.049 89.4844H515.924V79.5284H542.097V87.4077C542.097 92.9048 540.936 97.6283 538.615 101.578C536.294 105.508 533.098 108.541 529.026 110.679C524.954 112.796 520.291 113.855 515.039 113.855C509.175 113.855 504.024 112.562 499.585 109.977C495.147 107.371 491.686 103.675 489.202 98.8906C486.738 94.0857 485.507 88.3849 485.507 81.7884C485.507 76.7187 486.24 72.1989 487.705 68.2287C489.192 64.2382 491.268 60.8584 493.936 58.0895C496.603 55.3205 499.708 53.2133 503.25 51.7678C506.793 50.3222 510.631 49.5994 514.764 49.5994C518.306 49.5994 521.605 50.1186 524.659 51.157C527.713 52.175 530.42 53.6205 532.782 55.4936C535.164 57.3667 537.109 59.5961 538.615 62.1818C540.122 64.7472 541.089 67.5772 541.517 70.6719H528.079Z" fill="url(#paint2_linear_80_29)" fill-opacity="0.7"/>
<path d="M283.564 286V223.455H258.888C254.144 223.455 250.103 224.361 246.763 226.173C243.424 227.964 240.879 230.458 239.129 233.655C237.357 236.831 236.472 240.496 236.472 244.649C236.472 248.803 237.367 252.467 239.159 255.643C240.951 258.82 243.547 261.293 246.947 263.065C250.326 264.836 254.419 265.722 259.224 265.722H274.952V255.124H261.362C258.817 255.124 256.719 254.687 255.07 253.811C253.401 252.915 252.159 251.683 251.344 250.116C250.51 248.528 250.092 246.705 250.092 244.649C250.092 242.572 250.51 240.76 251.344 239.213C252.159 237.645 253.401 236.434 255.07 235.579C256.74 234.703 258.857 234.266 261.423 234.266H270.34V286H283.564ZM170.406 254.727C170.406 261.548 171.699 267.35 174.285 272.135C176.85 276.92 180.352 280.574 184.791 283.099C189.209 285.603 194.177 286.855 199.694 286.855C205.252 286.855 210.24 285.593 214.659 283.068C219.077 280.544 222.568 276.889 225.134 272.104C227.699 267.32 228.982 261.527 228.982 254.727C228.982 247.907 227.699 242.104 225.134 237.32C222.568 232.535 219.077 228.891 214.659 226.386C210.24 223.862 205.252 222.599 199.694 222.599C194.177 222.599 189.209 223.862 184.791 226.386C180.352 228.891 176.85 232.535 174.285 237.32C171.699 242.104 170.406 247.907 170.406 254.727ZM183.813 254.727C183.813 250.309 184.475 246.583 185.798 243.55C187.102 240.516 188.944 238.215 191.326 236.648C193.708 235.08 196.498 234.296 199.694 234.296C202.891 234.296 205.68 235.08 208.062 236.648C210.444 238.215 212.297 240.516 213.62 243.55C214.923 246.583 215.575 250.309 215.575 254.727C215.575 259.145 214.923 262.871 213.62 265.905C212.297 268.938 210.444 271.239 208.062 272.807C205.68 274.375 202.891 275.158 199.694 275.158C196.498 275.158 193.708 274.375 191.326 272.807C188.944 271.239 187.102 268.938 185.798 265.905C184.475 262.871 183.813 259.145 183.813 254.727ZM165.848 234.357V223.455H114.48V234.357H133.629V286H146.7V234.357H165.848Z" fill="white"/>
<path d="M283.564 286V223.455H258.888C254.144 223.455 250.103 224.361 246.763 226.173C243.424 227.964 240.879 230.458 239.129 233.655C237.357 236.831 236.472 240.496 236.472 244.649C236.472 248.803 237.367 252.467 239.159 255.643C240.951 258.82 243.547 261.293 246.947 263.065C250.326 264.836 254.419 265.722 259.224 265.722H274.952V255.124H261.362C258.817 255.124 256.719 254.687 255.07 253.811C253.401 252.915 252.159 251.683 251.344 250.116C250.51 248.528 250.092 246.705 250.092 244.649C250.092 242.572 250.51 240.76 251.344 239.213C252.159 237.645 253.401 236.434 255.07 235.579C256.74 234.703 258.857 234.266 261.423 234.266H270.34V286H283.564ZM170.406 254.727C170.406 261.548 171.699 267.35 174.285 272.135C176.85 276.92 180.352 280.574 184.791 283.099C189.209 285.603 194.177 286.855 199.694 286.855C205.252 286.855 210.24 285.593 214.659 283.068C219.077 280.544 222.568 276.889 225.134 272.104C227.699 267.32 228.982 261.527 228.982 254.727C228.982 247.907 227.699 242.104 225.134 237.32C222.568 232.535 219.077 228.891 214.659 226.386C210.24 223.862 205.252 222.599 199.694 222.599C194.177 222.599 189.209 223.862 184.791 226.386C180.352 228.891 176.85 232.535 174.285 237.32C171.699 242.104 170.406 247.907 170.406 254.727ZM183.813 254.727C183.813 250.309 184.475 246.583 185.798 243.55C187.102 240.516 188.944 238.215 191.326 236.648C193.708 235.08 196.498 234.296 199.694 234.296C202.891 234.296 205.68 235.08 208.062 236.648C210.444 238.215 212.297 240.516 213.62 243.55C214.923 246.583 215.575 250.309 215.575 254.727C215.575 259.145 214.923 262.871 213.62 265.905C212.297 268.938 210.444 271.239 208.062 272.807C205.68 274.375 202.891 275.158 199.694 275.158C196.498 275.158 193.708 274.375 191.326 272.807C188.944 271.239 187.102 268.938 185.798 265.905C184.475 262.871 183.813 259.145 183.813 254.727ZM165.848 234.357V223.455H114.48V234.357H133.629V286H146.7V234.357H165.848Z" fill="url(#paint3_linear_80_29)" fill-opacity="0.7"/>
<defs>
<linearGradient id="paint0_linear_80_29" x1="175.038" y1="36.18" x2="192.394" y2="133.108" gradientUnits="userSpaceOnUse">
<stop stop-color="white" stop-opacity="0.7"/>
<stop offset="0.668721" stop-color="white" stop-opacity="0"/>
</linearGradient>
<linearGradient id="paint1_linear_80_29" x1="303.038" y1="296.82" x2="320.394" y2="199.892" gradientUnits="userSpaceOnUse">
<stop stop-color="white" stop-opacity="0.7"/>
<stop offset="0.668721" stop-color="white" stop-opacity="0"/>
</linearGradient>
<linearGradient id="paint2_linear_80_29" x1="369.294" y1="49.2149" x2="415.297" y2="174.532" gradientUnits="userSpaceOnUse">
<stop stop-color="#808080"/>
<stop offset="0.668721" stop-color="#808080" stop-opacity="0"/>
</linearGradient>
<linearGradient id="paint3_linear_80_29" x1="217.706" y1="222.215" x2="171.703" y2="347.532" gradientUnits="userSpaceOnUse">
<stop stop-color="#808080"/>
<stop offset="0.668721" stop-color="#808080" stop-opacity="0"/>
</linearGradient>
</defs>
</svg>
